<svg width="100" height="100" viewBox="0 0 100 100" fill="none" xmlns="http://www.w3.org/2000/svg">
    <circle cx="50" cy="50" r="47.5" fill="#2C3039" stroke="white" stroke-width="5"/>
    <path d="M23.8736 58.975L14.7736 52.975C14.6236 52.875 14.507 52.75 14.4236 52.6C14.3403 52.4333 14.2986 52.2583 14.2986 52.075C14.2986 51.8417 14.3403 51.6583 14.4236 51.525C14.5236 51.375 14.6403 51.2667 14.7736 51.2L23.8986 45.175C24.082 45.0583 24.2486 44.975 24.3986 44.925C24.5486 44.8583 24.707 44.8583 24.8736 44.925C25.0403 44.975 25.2153 45.1417 25.3986 45.425C25.582 45.675 25.682 45.8917 25.6986 46.075C25.732 46.2417 25.6986 46.4 25.5986 46.55C25.5153 46.6833 25.3736 46.8083 25.1736 46.925L17.1986 52.075L25.1986 57.25C25.382 57.3667 25.5153 57.4917 25.5986 57.625C25.6986 57.7583 25.732 57.9167 25.6986 58.1C25.682 58.2833 25.582 58.5 25.3986 58.75C25.2153 59 25.0403 59.1583 24.8736 59.225C24.7236 59.2917 24.5653 59.2917 24.3986 59.225C24.2486 59.175 24.0736 59.0917 23.8736 58.975ZM29.266 59.25C28.966 59.25 28.7327 59.2 28.566 59.1C28.416 59 28.3077 58.8667 28.241 58.7C28.1743 58.5167 28.141 58.3167 28.141 58.1V42.9C28.141 42.6833 28.1743 42.5 28.241 42.35C28.3077 42.1833 28.4243 42.05 28.591 41.95C28.7577 41.85 28.9993 41.8 29.316 41.8C29.566 41.8 29.766 41.8167 29.916 41.85C30.066 41.8833 30.1827 41.9333 30.266 42C30.366 42.05 30.466 42.1333 30.566 42.25L37.091 51.7H36.316L42.916 42.175C43.016 42.0583 43.116 41.975 43.216 41.925C43.316 41.875 43.441 41.8417 43.591 41.825C43.7577 41.8083 43.9493 41.8 44.166 41.8C44.4827 41.8 44.716 41.85 44.866 41.95C45.0327 42.05 45.1493 42.1917 45.216 42.375C45.2827 42.5417 45.316 42.7333 45.316 42.95V58.15C45.316 58.35 45.2827 58.5333 45.216 58.7C45.1493 58.8667 45.0327 59 44.866 59.1C44.6993 59.2 44.4577 59.25 44.141 59.25C43.841 59.25 43.6077 59.2 43.441 59.1C43.291 59 43.1827 58.8667 43.116 58.7C43.066 58.5167 43.041 58.3167 43.041 58.1V45.55L37.691 53.425C37.641 53.5083 37.5743 53.5917 37.491 53.675C37.4077 53.7417 37.2993 53.8 37.166 53.85C37.0493 53.9 36.8993 53.925 36.716 53.925C36.516 53.925 36.3577 53.9 36.241 53.85C36.141 53.8 36.0493 53.7417 35.966 53.675C35.8827 53.5917 35.7993 53.5 35.716 53.4L30.391 45.575V58.15C30.391 58.35 30.3577 58.5333 30.291 58.7C30.241 58.8667 30.1327 59 29.966 59.1C29.816 59.2 29.5827 59.25 29.266 59.25ZM53.1709 59.325C52.6876 59.325 52.2126 59.2667 51.7459 59.15C51.2959 59.0333 50.8792 58.8833 50.4959 58.7C50.1126 58.5167 49.7709 58.3167 49.4709 58.1C49.1709 57.8833 48.9209 57.675 48.7209 57.475C48.5376 57.2917 48.3792 57.125 48.2459 56.975C48.1292 56.825 48.0709 56.6833 48.0709 56.55C48.0709 56.4 48.1209 56.25 48.2209 56.1C48.3209 55.9333 48.4292 55.7917 48.5459 55.675C48.7292 55.4917 48.8792 55.375 48.9959 55.325C49.1292 55.2583 49.2542 55.225 49.3709 55.225C49.6042 55.225 49.7876 55.3 49.9209 55.45C50.0709 55.6 50.2876 55.8083 50.5709 56.075C50.7376 56.1917 50.9542 56.3333 51.2209 56.5C51.4876 56.6667 51.7959 56.8167 52.1459 56.95C52.4959 57.0667 52.8709 57.125 53.2709 57.125C53.8209 57.125 54.2959 57.025 54.6959 56.825C55.0959 56.625 55.4209 56.3417 55.6709 55.975C55.9376 55.6083 56.1376 55.1833 56.2709 54.7C56.4042 54.2 56.4709 53.6667 56.4709 53.1V43.125C56.4709 42.8583 56.4959 42.625 56.5459 42.425C56.5959 42.225 56.7042 42.075 56.8709 41.975C57.0542 41.8583 57.3126 41.8 57.6459 41.8C57.9626 41.8 58.1959 41.85 58.3459 41.95C58.4959 42.0333 58.5959 42.1667 58.6459 42.35C58.6959 42.5167 58.7209 42.7167 58.7209 42.95V53.3C58.7209 54.1833 58.5959 54.9917 58.3459 55.725C58.1126 56.4583 57.7626 57.0917 57.2959 57.625C56.8292 58.1583 56.2459 58.575 55.5459 58.875C54.8626 59.175 54.0709 59.325 53.1709 59.325ZM61.9189 60.225C61.5523 60.025 61.3439 59.8083 61.2939 59.575C61.2606 59.3417 61.3523 59 61.5689 58.55L70.1439 41.975C70.3106 41.675 70.4606 41.4583 70.5939 41.325C70.7439 41.175 70.9106 41.1 71.0939 41.1C71.2773 41.1 71.4856 41.1583 71.7189 41.275C71.9689 41.4083 72.1356 41.55 72.2189 41.7C72.3189 41.8333 72.3439 42 72.2939 42.2C72.2606 42.4 72.1689 42.6583 72.0189 42.975L63.4439 59.525C63.2273 59.975 63.0106 60.2417 62.7939 60.325C62.5773 60.425 62.2856 60.3917 61.9189 60.225ZM76.134 58.975C75.9507 59.0917 75.7757 59.175 75.609 59.225C75.4423 59.2917 75.2757 59.2917 75.109 59.225C74.959 59.1583 74.8007 59 74.634 58.75C74.4507 58.5 74.3423 58.2833 74.309 58.1C74.2757 57.9167 74.309 57.7583 74.409 57.625C74.509 57.4917 74.6507 57.3667 74.834 57.25L82.809 52.075L74.834 46.925C74.6507 46.8083 74.509 46.6833 74.409 46.55C74.3257 46.4 74.2923 46.2417 74.309 46.075C74.3423 45.8917 74.4507 45.675 74.634 45.425C74.8173 45.1417 74.984 44.975 75.134 44.925C75.3007 44.8583 75.459 44.8583 75.609 44.925C75.7757 44.975 75.9507 45.0583 76.134 45.175L85.259 51.2C85.3923 51.2667 85.5007 51.375 85.584 51.525C85.684 51.6583 85.734 51.8417 85.734 52.075C85.734 52.2583 85.684 52.4333 85.584 52.6C85.5007 52.75 85.3923 52.875 85.259 52.975L76.134 58.975Z" fill="white"/>
</svg>